<?xml version="1.0" standalone="no"?>
<!DOCTYPE svg PUBLIC "-//W3C//DTD SVG 20010904//EN"
 "http://www.w3.org/TR/2001/REC-SVG-20010904/DTD/svg10.dtd">
<svg version="1.0" xmlns="http://www.w3.org/2000/svg"
 width="1024.000000pt" height="1024.000000pt" viewBox="0 0 1024.000000 1024.000000"
 preserveAspectRatio="xMidYMid meet">
<metadata>
Created by potrace 1.14, written by Peter Selinger 2001-2017
</metadata>
<g transform="translate(0.000000,1024.000000) scale(0.100000,-0.100000)"
fill="#000000" stroke="none">
<path d="M4848 8745 c-2 -1 -57 -5 -123 -9 -178 -9 -306 -26 -490 -66 -49 -10
-101 -21 -115 -23 -110 -21 -365 -101 -535 -168 -16 -7 -34 -13 -40 -15 -46
-11 -440 -209 -558 -281 -159 -96 -406 -269 -478 -334 -14 -13 -52 -46 -84
-74 -102 -87 -223 -211 -405 -415 -17 -19 -50 -60 -73 -90 -23 -30 -44 -57
-48 -60 -32 -28 -259 -378 -259 -399 0 -5 -4 -11 -9 -13 -13 -5 -166 -323
-214 -448 -39 -100 -120 -355 -131 -415 -2 -11 -9 -40 -15 -65 -18 -82 -48
-241 -57 -310 -3 -25 -8 -54 -10 -65 -2 -11 -6 -40 -9 -65 -3 -25 -8 -58 -10
-75 -3 -16 -5 -56 -6 -88 -1 -32 -5 -59 -8 -61 -9 -6 -5 -375 4 -481 5 -49 9
-101 10 -115 2 -14 3 -25 4 -25 1 0 4 -18 6 -40 4 -52 20 -165 30 -215 8 -40
15 -73 20 -100 8 -43 13 -63 30 -135 9 -38 18 -77 20 -85 10 -43 80 -264 102
-320 96 -248 209 -478 334 -679 33 -51 59 -97 59 -101 0 -5 4 -10 8 -12 4 -1
23 -25 42 -53 214 -308 471 -590 685 -753 33 -25 62 -49 65 -52 11 -13 166
-128 190 -140 14 -7 27 -16 30 -19 5 -6 77 -55 112 -76 9 -5 59 -35 110 -67
112 -68 295 -160 438 -220 117 -50 140 -59 155 -64 6 -2 63 -22 127 -44 99
-34 329 -98 418 -116 13 -3 56 -12 95 -20 38 -8 85 -17 104 -20 18 -3 43 -8
55 -10 21 -4 56 -10 111 -19 70 -11 244 -19 435 -20 201 0 475 11 489 19 4 3
29 7 56 11 41 5 148 23 299 51 55 10 152 34 221 55 39 11 77 22 85 24 8 1 22
5 30 8 8 4 69 24 134 47 188 64 445 180 619 279 20 11 54 30 75 42 117 66 329
215 452 318 150 125 378 342 450 426 208 247 361 463 481 680 37 68 149 292
149 300 0 2 11 28 24 57 59 131 129 332 161 458 46 189 68 279 71 295 1 11 7
47 13 80 11 67 22 147 26 185 1 14 8 82 15 152 12 120 10 589 -3 643 -3 12 -8
51 -11 87 -4 37 -8 75 -10 85 -7 35 -17 98 -20 128 -2 17 -14 76 -26 130 -27
124 -24 111 -40 165 -7 25 -13 48 -12 52 4 15 -110 342 -163 468 -30 74 -185
392 -194 400 -6 5 -23 35 -55 93 -14 27 -89 140 -97 147 -3 3 -27 37 -54 75
-45 64 -112 153 -125 165 -3 3 -16 19 -28 35 -115 151 -411 443 -574 564 -61
46 -318 221 -369 250 -196 116 -383 207 -616 302 -13 5 -33 14 -45 19 -80 36
-408 134 -521 156 -10 2 -27 6 -38 9 -11 4 -32 8 -47 10 -15 3 -38 7 -52 9
-54 12 -77 16 -120 21 -25 4 -56 8 -70 10 -14 2 -52 7 -85 10 -33 3 -78 8
-100 11 -42 5 -492 14 -497 9z m67 -1192 l0 -882 -82 0 -83 0 0 879 0 879 33
3 c17 2 54 3 81 3 l50 0 1 -882z m-265 -14 l0 -879 -27 -1 c-16 -1 -38 -3 -51
-4 -31 -3 -34 5 -18 64 16 61 5 91 -37 106 -61 21 -114 -46 -86 -109 8 -17 13
-43 11 -58 -3 -27 -13 -33 -64 -42 l-28 -5 0 190 c0 148 3 189 13 189 7 0 32
12 54 27 46 29 93 111 93 161 0 73 -46 147 -114 182 l-45 22 0 143 0 143 40
43 c22 24 50 55 63 69 12 14 38 46 57 71 l35 45 -1 257 -1 256 36 3 c19 2 43
4 52 5 17 2 18 -50 18 -878z m-210 623 l0 -229 -32 -38 c-18 -21 -58 -65 -88
-98 -30 -33 -59 -66 -63 -74 -5 -8 -9 -89 -10 -179 l-1 -165 -34 -21 c-50 -31
-70 -55 -89 -112 -22 -66 -19 -108 10 -162 18 -35 66 -79 96 -89 18 -5 19 -17
19 -205 l0 -200 -42 -10 c-22 -6 -51 -15 -63 -20 l-23 -10 0 115 0 114 -70 78
c-38 43 -71 85 -71 93 -6 74 -3 519 3 533 9 17 83 100 162 179 46 47 44 27 45
400 l1 276 43 7 c23 4 74 16 112 26 39 10 76 18 83 18 9 1 12 -51 12 -227z
m-357 -114 c-2 -145 -5 -272 -8 -283 -2 -11 -25 -42 -51 -70 -25 -27 -63 -68
-83 -90 -76 -82 -71 -56 -71 -401 l0 -311 31 -34 c16 -19 48 -57 70 -85 l39
-51 0 -104 -1 -104 -132 -43 c-73 -23 -135 -42 -139 -42 -5 0 -8 265 -8 589
l0 589 28 7 c33 7 82 55 106 103 48 95 -11 236 -112 267 -22 6 -23 10 -20 113
l3 106 98 33 c80 27 226 70 247 72 3 1 4 -117 3 -261z m1149 245 c50 -45 -15
-106 -68 -62 -17 14 -18 33 -2 59 16 24 45 26 70 3z m312 -6 c28 -21 29 -66 1
-79 -50 -22 -86 32 -48 74 19 22 24 22 47 5z m462 -102 c128 -75 143 -257 29
-358 -32 -28 -81 -47 -136 -51 -33 -3 -57 -11 -68 -23 -9 -10 -50 -58 -92
-108 -119 -140 -82 -127 -349 -126 -149 0 -237 4 -245 11 -22 18 -24 49 -6 72
17 21 24 21 234 21 l217 0 25 31 c13 17 49 58 79 91 31 33 56 65 56 72 0 18
-52 63 -75 64 -11 1 -134 2 -274 4 -228 2 -256 4 -267 19 -7 10 -11 27 -9 38
10 48 11 48 291 48 l264 0 0 26 c0 72 78 169 157 194 44 15 121 3 169 -25z
m-2381 -120 l0 -84 -31 -6 c-17 -3 -45 -20 -61 -38 -96 -105 -58 -278 71 -327
l26 -10 0 -607 -1 -608 -44 -22 c-25 -13 -49 -23 -55 -23 -16 0 -12 80 5 96
23 23 18 62 -11 89 -32 29 -74 32 -102 8 -22 -20 -37 -79 -22 -88 6 -3 10 -42
10 -86 0 -72 -2 -79 -20 -79 -11 0 -20 -4 -20 -8 0 -4 -13 -16 -30 -25 l-30
-18 0 309 0 308 32 15 c119 53 129 228 17 309 -59 42 -62 73 -12 97 74 34 123
116 116 192 -2 18 -15 55 -30 82 -20 38 -37 54 -74 72 l-48 22 -1 187 0 186
152 76 c83 42 154 73 157 70 3 -3 6 -43 6 -89z m2735 5 c11 -11 20 -25 20 -32
0 -18 -31 -48 -50 -48 -39 0 -53 49 -23 82 21 23 28 23 53 -2z m-3156 -284
c-1 -86 -3 -155 -5 -154 -7 5 -72 -44 -96 -70 -38 -44 -50 -127 -27 -189 17
-46 70 -99 109 -109 40 -10 34 -55 -12 -90 -59 -44 -77 -72 -88 -135 -12 -65
34 -150 100 -186 16 -9 19 -23 21 -90 1 -45 -3 -84 -10 -92 -7 -10 -7 -13 0
-8 7 4 11 -13 11 -53 0 -41 -3 -57 -11 -53 -8 5 -8 3 0 -8 16 -19 16 -121 0
-112 -8 5 -8 3 0 -8 14 -17 16 -167 2 -175 -5 -3 -5 -11 2 -19 26 -31 4 -59
-86 -112 -49 -29 -91 -53 -94 -53 -3 0 -5 224 -5 498 1 273 -2 508 -6 522 -4
14 -41 61 -83 104 l-76 79 0 87 0 87 -32 -2 c-70 -3 -77 -14 -77 -120 l0 -95
57 -62 c31 -34 69 -75 85 -90 l27 -29 1 -172 c1 -261 1 -755 -1 -817 l0 -55
-78 -52 c-42 -29 -104 -73 -137 -97 l-61 -45 -2 99 -3 98 29 7 c67 14 132 107
132 187 0 55 -28 125 -61 153 -13 10 -40 24 -59 31 l-35 12 0 151 c0 83 2 150
5 149 3 -1 26 12 51 29 77 53 105 149 72 238 -17 45 -73 102 -109 111 -13 3
-25 13 -28 22 -2 10 -4 105 -5 213 -1 219 -9 193 85 279 27 25 76 67 108 95
70 58 376 266 385 261 3 -2 6 -74 5 -160z m3541 118 c26 -26 3 -73 -35 -74
-38 0 -55 60 -22 79 24 15 38 13 57 -5z m-3016 -69 c16 -22 18 -31 9 -56 -14
-40 -50 -54 -89 -34 -23 12 -29 22 -29 47 0 65 69 92 109 43z m2744 2 c87 -37
138 -118 138 -219 1 -145 -127 -235 -281 -198 -130 31 -197 177 -138 299 12
25 33 56 47 69 63 57 163 78 234 49z m485 -147 c12 -12 22 -26 22 -32 0 -21
-41 -57 -59 -50 -41 15 -48 62 -13 90 21 16 24 16 50 -8z m326 -109 c21 -18
20 -44 -3 -65 -28 -26 -71 -6 -71 33 0 45 39 61 74 32z m-1293 -12 c14 -27 -1
-64 -29 -71 -23 -6 -62 24 -62 47 0 42 71 61 91 24z m-2683 -79 c30 -28 28
-64 -4 -89 -33 -26 -45 -26 -74 -3 -43 35 -15 112 39 112 10 0 27 -9 39 -20z
m3452 2 c19 -16 21 -22 11 -40 -18 -34 -44 -44 -69 -26 -25 17 -28 35 -10 64
16 25 39 25 68 2z m384 -59 c164 -85 168 -315 6 -398 -43 -22 -124 -27 -174
-10 -46 16 -101 66 -127 117 l-19 36 -797 1 c-439 0 -820 0 -846 0 -40 1 -49
5 -56 23 -11 30 6 78 27 79 10 1 386 2 837 3 451 1 825 5 832 9 6 4 14 21 18
37 7 30 87 108 106 103 5 -2 9 2 9 8 0 5 3 8 8 6 4 -3 16 -1 27 4 27 12 111 1
149 -18z m-4628 -188 c0 -94 -4 -165 -9 -165 -20 0 -89 -65 -108 -102 -15 -29
-19 -56 -18 -102 3 -78 34 -130 96 -160 48 -24 44 -5 44 -211 1 -88 -2 -120
-12 -124 -22 -7 -99 -83 -93 -92 3 -5 1 -9 -4 -9 -9 0 -10 -1 -16 -75 -5 -67
27 -129 87 -170 l44 -29 -1 -138 -2 -137 -44 -32 c-25 -18 -58 -45 -75 -61
l-30 -29 -3 28 c-2 18 -23 51 -57 88 -30 33 -55 63 -55 68 0 7 75 94 92 107 3
3 6 305 6 672 l-1 666 22 29 c21 26 131 143 135 143 0 0 1 -74 2 -165z m5034
33 c11 -12 20 -24 20 -28 0 -16 -34 -50 -50 -50 -16 0 -50 34 -50 50 0 10 40
50 50 50 5 0 18 -10 30 -22z m-3198 -45 c42 -38 2 -121 -52 -108 -37 10 -50
24 -50 58 0 58 60 88 102 50z m-2102 -702 l1 -583 -48 -51 c-26 -29 -50 -54
-54 -57 -15 -12 -29 -52 -22 -64 4 -7 35 -43 68 -80 56 -62 59 -69 60 -118 l2
-53 -104 -90 c-57 -49 -107 -91 -111 -93 -4 -1 -6 155 -4 348 2 242 6 350 13
350 21 0 84 58 106 97 29 51 26 142 -7 196 -64 107 -220 122 -308 29 -52 -56
-70 -158 -39 -219 21 -39 76 -92 104 -99 26 -7 23 56 27 -519 l2 -270 -61 -62
c-33 -35 -62 -63 -65 -63 -3 0 -4 156 -2 346 l3 345 -68 77 c-37 42 -76 87
-87 100 -20 22 -20 22 3 95 55 171 154 398 237 542 16 28 42 74 59 103 29 50
66 83 50 45 -27 -65 -29 -73 -19 -100 6 -19 20 -32 44 -39 42 -14 73 -2 89 33
14 31 14 45 -2 76 -8 15 -13 57 -12 109 1 72 5 90 25 119 33 48 112 140 116
136 2 -2 4 -265 4 -586z m3558 493 c26 -18 28 -41 5 -66 -21 -23 -34 -23 -61
2 -23 22 -21 46 6 68 20 15 23 15 50 -4z m391 -5 c22 -24 15 -51 -18 -68 -29
-16 -64 14 -56 48 11 45 43 53 74 20z m1201 -22 c12 -31 -19 -62 -54 -53 -38
9 -46 53 -15 77 27 20 55 11 69 -24z m-1999 7 c20 -53 -46 -87 -76 -40 -23 34
-5 66 36 66 23 0 32 -6 40 -26z m1321 0 c16 -34 0 -59 -38 -59 -22 0 -31 6
-38 27 -19 54 52 84 76 32z m-4096 -71 c32 -43 3 -103 -50 -103 -38 0 -53 13
-57 50 -8 63 70 101 107 53z m5168 5 c12 -20 2 -44 -27 -62 -12 -8 -21 -5 -36
8 -25 23 -26 39 -5 61 20 20 53 16 68 -7z m-464 -148 c11 -11 20 -29 20 -40 0
-45 -20 -47 -442 -45 -395 1 -398 1 -399 -19 -1 -12 -3 -79 -4 -151 -4 -187
-6 -222 -12 -208 -2 7 -20 15 -38 19 -19 3 -36 13 -39 23 -2 9 -4 85 -4 169 0
84 -3 156 -6 160 -4 3 -288 6 -631 7 -464 0 -627 3 -636 12 -17 17 -14 65 6
79 13 10 248 13 1091 13 1058 1 1075 0 1094 -19z m746 -105 c19 -22 33 -44 31
-50 -2 -6 -91 -12 -228 -15 l-225 -5 -70 -62 c-38 -35 -102 -97 -143 -138
l-73 -75 -237 0 -236 0 -53 -75 c-30 -41 -58 -75 -62 -75 -5 0 -21 10 -36 23
l-27 23 40 66 c92 151 79 146 348 144 l210 -1 35 28 c19 16 83 76 142 134 74
72 117 107 138 112 17 3 117 6 221 6 l190 0 35 -40z m-1940 -121 c17 -24 16
-26 -8 -51 -23 -22 -28 -24 -49 -13 -43 23 -48 41 -19 70 27 27 56 25 76 -6z
m622 -20 c35 -24 25 -59 -21 -77 -26 -10 -60 28 -51 56 12 39 36 46 72 21z
m1368 -75 c17 -19 17 -23 3 -47 -19 -35 -52 -40 -72 -11 -24 33 -4 69 44 78 3
0 14 -8 25 -20z m-2906 -43 c108 -9 132 -12 255 -31 66 -10 77 -13 155 -30
340 -76 697 -219 1081 -431 79 -43 151 -82 159 -87 8 -4 27 -15 42 -25 14 -9
48 -30 75 -46 228 -138 604 -414 741 -544 19 -18 42 -38 52 -45 27 -19 133
-113 191 -169 31 -30 47 -53 41 -57 -16 -10 -74 -56 -200 -159 -62 -51 -117
-90 -123 -87 -5 4 -8 2 -7 -4 3 -11 -33 -42 -207 -174 -189 -143 -487 -343
-631 -423 -27 -15 -83 -46 -125 -70 -165 -93 -527 -261 -547 -255 -1 1 -15 -5
-30 -12 -34 -17 -289 -105 -322 -111 -14 -2 -26 -5 -27 -5 -2 -1 -6 -1 -10 -2
-5 0 -21 -6 -38 -13 -60 -25 -320 -78 -460 -93 -132 -15 -595 -6 -625 12 -3 1
-36 6 -75 10 -38 4 -73 9 -76 11 -4 2 -24 6 -44 10 -52 8 -82 15 -175 39 -36
9 -69 18 -75 19 -111 25 -621 216 -637 240 -4 6 -8 7 -8 3 0 -9 -250 119 -375
193 -146 86 -345 215 -436 282 -242 178 -335 249 -398 304 -20 17 -70 57 -111
90 -41 32 -77 61 -80 64 -3 3 -40 36 -82 73 l-78 68 48 41 c26 22 74 64 107
92 56 48 154 135 165 146 3 3 48 41 100 84 52 43 107 89 122 102 39 33 213
163 288 215 36 24 67 47 70 50 9 10 55 33 63 31 4 -1 7 2 7 7 0 31 664 387
709 380 2 0 7 3 10 9 15 22 452 180 576 208 6 1 40 9 78 18 37 9 82 18 100 21
17 4 50 10 72 15 22 4 60 11 85 14 25 3 56 8 70 11 14 3 68 8 120 11 52 3 96
6 97 7 4 4 245 -1 323 -7z m2746 -86 c80 -34 133 -117 134 -206 0 -28 -3 -54
-7 -58 -4 -3 -8 -16 -10 -27 -3 -23 -14 -38 -64 -89 -59 -60 -152 -73 -243
-35 -39 17 -100 78 -116 116 l-12 29 -249 0 -249 0 -12 25 c-8 19 -8 31 0 50
l12 25 244 0 244 0 7 27 c12 49 59 107 110 136 66 38 134 40 211 7z m-5932
-72 c33 -47 7 -98 -50 -98 -40 0 -64 30 -58 69 9 52 79 71 108 29z m609 -26
c38 -33 6 -94 -50 -94 -28 0 -63 32 -63 59 0 7 11 25 24 38 26 26 56 25 89 -3z
m5635 -118 c26 -18 28 -41 5 -66 -29 -32 -73 -17 -73 26 0 19 26 56 39 56 4 0
17 -7 29 -16z m-6599 -322 l24 -24 0 -365 -1 -366 -46 -41 c-25 -23 -46 -46
-46 -50 0 -4 21 -27 48 -51 l47 -43 0 -476 c-1 -461 -1 -476 -20 -491 -11 -8
-23 -15 -26 -15 -11 0 -101 346 -123 475 -18 103 -35 218 -34 223 1 4 -2 27
-5 52 -16 109 -22 429 -12 600 12 190 78 589 106 643 10 18 12 17 37 -14 15
-18 38 -43 51 -57z m6558 42 c17 -26 16 -27 -11 -51 -25 -22 -30 -23 -50 -10
-11 8 -22 24 -24 36 -8 52 55 70 85 25z m-629 4 c21 -21 14 -57 -14 -70 -31
-14 -57 -1 -62 31 -7 42 46 69 76 39z m838 -242 c20 -27 18 -53 -5 -66 -13 -6
-139 -10 -343 -10 l-323 0 -59 53 -58 52 387 -5 c368 -5 387 -6 401 -24z
m-170 -251 c15 -23 15 -27 0 -50 -19 -29 -33 -31 -64 -9 -26 18 -28 32 -6 62
20 29 50 28 70 -3z m172 -265 c28 -26 28 -44 1 -69 -23 -21 -46 -18 -66 8 -17
22 -16 34 7 59 26 27 31 27 58 2z m-6568 -369 c0 -3 13 -13 29 -22 l29 -17 -4
-557 c-3 -608 2 -559 -63 -635 l-30 -35 -49 105 c-27 58 -57 128 -67 156 l-18
51 52 48 51 48 -3 454 c-2 249 -1 456 1 458 5 5 72 -45 72 -54z m6388 39 c27
-26 28 -42 2 -65 -24 -21 -65 -14 -80 15 -9 16 -6 25 14 45 30 30 36 31 64 5z
m-6108 -259 c100 -79 95 -70 95 -176 0 -52 -2 -95 -5 -95 -3 0 -15 -17 -28
-38 -13 -20 -41 -48 -63 -61 -84 -53 -49 -164 47 -146 37 6 54 29 54 70 0 19
15 43 50 78 53 54 54 59 50 165 -1 23 1 42 5 42 4 0 40 -25 80 -55 l74 -56 1
-199 c1 -191 0 -199 -20 -205 -11 -3 -34 -18 -50 -32 -101 -85 -85 -260 30
-324 l40 -23 -1 -125 0 -126 -47 -30 c-25 -16 -54 -44 -65 -62 -24 -43 -35
-110 -24 -155 11 -45 79 -126 113 -134 24 -6 24 -7 24 -145 0 -76 -4 -139 -9
-139 -5 0 -28 23 -52 52 -24 29 -51 59 -59 68 -8 9 -33 38 -55 65 -22 28 -44
55 -50 61 -5 6 -21 25 -35 43 -14 18 -29 38 -35 44 -18 21 -120 161 -138 189
l-17 27 63 63 c120 121 121 124 123 257 1 64 6 128 12 142 6 15 9 35 7 45 -2
11 -4 22 -4 27 -2 15 -63 45 -84 39 -55 -13 -81 -71 -52 -117 18 -29 13 -207
-7 -237 -15 -22 -27 -37 -85 -101 l-25 -29 -24 34 c-14 18 -41 61 -61 95 l-35
63 71 79 72 78 -1 299 c0 165 0 406 0 538 l0 238 38 -27 c20 -16 57 -44 82
-64z m6286 -22 c14 -15 16 -25 8 -47 l-9 -27 -365 -2 -365 -3 55 50 c65 58 51
56 416 52 227 -2 243 -4 260 -23z m-786 -219 c26 -26 25 -32 -4 -59 -19 -18
-28 -21 -44 -12 -28 15 -35 40 -17 67 19 29 39 30 65 4z m581 -26 c15 -18 -2
-61 -27 -71 -24 -9 -64 17 -64 42 0 44 63 63 91 29z m-251 -105 c45 -24 87
-69 106 -116 15 -35 13 -143 -4 -184 -17 -43 -74 -101 -117 -120 -48 -21 -137
-19 -182 4 -42 22 -101 83 -124 129 -22 43 -7 40 -219 39 -270 -2 -293 -1
-307 10 -21 18 -12 71 13 84 14 7 113 10 266 10 l245 -1 12 31 c6 18 30 51 53
74 72 70 170 86 258 40z m-5193 -95 l112 -69 2 -50 c5 -183 -1 -986 -7 -998
-5 -8 -25 -33 -44 -54 -20 -21 -52 -59 -73 -85 l-39 -47 -2 -121 c-2 -102 0
-125 16 -150 12 -21 26 -30 45 -32 16 0 33 -2 38 -3 6 -2 16 -3 23 -4 24 -2
121 -102 127 -131 22 -99 155 -80 155 22 0 24 -37 68 -57 68 -7 0 -47 34 -88
75 -69 68 -80 75 -116 75 l-39 0 0 80 c0 88 -6 78 113 204 21 23 42 50 46 61
4 11 7 246 7 522 -1 442 1 500 14 493 8 -5 51 -30 95 -57 l80 -48 2 -501 1
-501 -33 -16 c-64 -31 -117 -128 -108 -202 7 -63 58 -136 111 -156 12 -5 22
-14 23 -21 3 -40 4 -398 1 -398 -22 0 -402 279 -492 361 -25 22 -55 48 -68 56
-22 15 -23 19 -22 205 l2 188 35 15 c69 29 127 123 122 198 -4 60 -49 129
-103 158 l-45 23 -3 114 c-3 129 1 147 35 156 35 8 84 62 103 113 36 93 -6
202 -92 242 l-44 21 0 157 0 157 28 -25 c15 -14 77 -57 139 -95z m5503 -54
c24 -24 25 -38 3 -62 -20 -22 -41 -23 -65 -1 -24 22 -23 49 4 67 29 20 34 20
58 -4z m-1450 -230 l42 -50 276 0 275 0 122 -120 121 -120 198 0 c117 0 205
-4 217 -10 25 -14 25 -54 0 -77 -17 -16 -40 -18 -213 -16 -106 0 -205 2 -220
2 -19 1 -47 21 -96 69 -38 37 -92 89 -120 116 l-51 49 -266 3 c-231 3 -268 5
-288 20 -28 22 -112 122 -112 135 0 9 54 49 66 49 4 0 26 -22 49 -50z m-3485
-43 l40 -23 0 -124 c0 -69 4 -131 8 -137 10 -16 83 -17 93 -1 4 6 8 57 8 112
1 56 4 101 7 101 3 0 28 -11 56 -24 l51 -24 1 -243 2 -243 -38 -20 c-154 -79
-153 -302 1 -366 l35 -15 0 -82 0 -81 -91 -110 -91 -110 -1 -96 -1 -96 92 -95
92 -95 0 -72 c-1 -70 -10 -88 -33 -66 -4 5 -11 8 -14 8 -4 0 -67 29 -139 64
l-133 65 0 232 0 232 28 7 c51 11 106 74 118 135 11 59 7 93 -16 143 -18 38
-34 55 -76 79 l-54 30 0 469 c0 258 3 469 8 469 4 0 25 -11 47 -23z m-736 -22
c34 -34 -1 -105 -52 -105 -51 0 -76 71 -38 109 22 22 66 20 90 -4z m5508 -56
c12 -21 10 -26 -12 -46 -30 -26 -63 -20 -71 14 -14 54 58 82 83 32z m-1632
-185 c1 -104 2 -196 3 -205 2 -15 41 -17 440 -18 399 -1 438 -2 450 -18 14
-20 7 -53 -15 -70 -12 -10 -266 -12 -1125 -10 -1198 2 -1128 -1 -1128 52 0 50
-26 48 649 46 l631 -2 0 193 0 193 33 15 c62 30 61 32 62 -176z m-2673 63 l84
-32 2 -150 c0 -83 1 -163 2 -180 0 -22 16 -47 60 -95 51 -55 59 -70 55 -95
-10 -72 83 -108 122 -48 36 55 13 109 -96 226 l-36 38 0 134 c-1 74 2 135 5
135 3 0 37 -9 75 -20 39 -11 79 -22 90 -24 57 -12 54 6 53 -302 l0 -285 -37
-18 c-66 -34 -102 -97 -103 -182 0 -75 56 -156 125 -182 16 -6 17 -35 17 -415
0 -225 -2 -411 -5 -414 -5 -5 -255 59 -264 67 -8 8 -2 430 6 432 28 10 75 47
99 79 26 33 29 45 29 108 -1 54 -6 79 -21 103 -89 140 -278 126 -350 -25 -42
-88 6 -221 94 -257 19 -8 32 -21 32 -32 5 -179 6 -373 2 -373 -3 0 -32 7 -64
16 -40 12 -57 21 -54 30 3 8 0 11 -10 7 -12 -4 -14 14 -14 114 l0 119 -36 39
c-20 22 -59 63 -87 92 -47 49 -50 55 -52 109 -1 41 3 62 14 74 9 9 49 54 89
102 l72 85 0 107 0 106 39 20 c96 49 134 177 82 281 -20 39 -75 89 -100 89 -5
0 -12 8 -15 18 -9 26 -4 432 4 432 5 0 46 -15 92 -33z m2305 -101 c-17 -26
-59 -32 -76 -12 -19 22 -9 59 19 73 23 12 27 10 48 -13 21 -24 21 -28 9 -48z
m625 47 c25 -22 23 -50 -6 -68 -20 -13 -28 -14 -45 -4 -26 17 -32 43 -14 68
17 25 40 27 65 4z m464 -21 c19 -26 -14 -73 -48 -68 -43 6 -56 47 -27 83 15
17 57 9 75 -15z m-2793 -92 c4 0 7 -54 7 -119 0 -130 1 -132 60 -127 47 3 50
11 49 117 0 55 1 101 2 103 2 1 25 1 52 -2 l47 -4 0 -882 c0 -486 -2 -885 -4
-887 -2 -2 -27 -2 -54 -1 l-49 4 0 244 c0 134 4 244 8 244 14 0 10 83 -5 102
-7 9 -27 20 -44 23 -25 4 -36 0 -57 -22 -26 -28 -34 -80 -15 -99 7 -7 15 -325
11 -456 -1 -10 -8 -15 -18 -13 -10 2 -30 4 -45 4 l-28 1 0 430 c0 360 2 430
14 430 63 0 146 105 146 185 0 75 -63 163 -133 187 l-28 10 2 270 1 269 37 -5
c20 -3 39 -5 44 -6z m478 -60 c3 -14 4 -1737 1 -1751 -3 -12 -13 -15 -45 -12
-23 1 -59 4 -79 4 l-38 1 0 883 0 882 80 -1 c44 0 81 -3 81 -6z m2880 -112
c22 -25 22 -24 9 -49 -16 -29 -63 -25 -80 6 -12 22 -11 27 5 45 23 26 43 25
66 -2z m-211 -103 c34 -18 37 -31 14 -63 -18 -26 -41 -28 -66 -5 -22 20 -23
32 -2 61 18 26 17 26 54 7z m-4983 -11 c12 -3 27 -19 33 -35 18 -42 -8 -79
-55 -79 -57 0 -80 56 -42 100 18 21 28 23 64 14z m2795 -81 c22 -20 23 -41 1
-65 -22 -24 -48 -23 -67 3 -16 23 -11 47 13 66 21 17 31 16 53 -4z m420 0 c24
-21 23 -45 -2 -68 -17 -15 -24 -16 -45 -7 -34 16 -41 37 -21 67 19 29 42 32
68 8z m380 0 c24 -21 23 -45 -2 -68 -44 -40 -97 27 -54 69 20 20 33 20 56 -1z
m547 -15 c14 -24 14 -28 -3 -47 -23 -25 -43 -27 -68 -4 -23 20 -23 41 -1 65
23 25 54 19 72 -14z m-3009 -19 c36 -66 -37 -132 -92 -82 -34 30 -14 100 31
105 35 5 50 -1 61 -23z m3416 -33 c172 -80 179 -326 11 -409 -117 -57 -243 -7
-322 127 -9 16 -69 17 -834 18 -454 1 -833 3 -842 5 -26 7 -41 56 -24 80 13
19 37 19 850 19 460 -1 840 1 845 4 4 3 15 21 23 41 32 77 121 136 207 138 19
0 58 -10 86 -23z m410 -137 c23 -25 11 -67 -21 -75 -19 -5 -31 -1 -45 16 -20
23 -19 31 7 61 17 21 39 20 59 -2z m-3199 -112 c28 -29 19 -76 -19 -92 -70
-29 -118 39 -67 94 22 24 61 23 86 -2z m-1045 -24 c40 -36 10 -103 -46 -103
-24 0 -36 7 -48 28 -35 61 41 123 94 75z m3176 -119 c167 -83 170 -319 6 -402
-114 -58 -242 -14 -299 103 -45 92 -30 190 40 260 69 69 164 84 253 39z m282
-29 c11 -13 11 -20 0 -39 -17 -33 -47 -39 -71 -15 -24 24 -24 44 1 69 22 22
43 17 70 -15z m-790 -50 c20 -21 22 -28 12 -50 -13 -29 -52 -34 -76 -9 -21 20
-20 26 5 58 25 32 30 32 59 1z m-301 -81 c25 -27 74 -81 108 -119 61 -69 63
-70 103 -67 24 3 59 -3 83 -12 45 -18 97 -58 97 -76 0 -5 4 -10 9 -10 16 0 34
-70 32 -127 -2 -85 -50 -163 -121 -195 -14 -6 -52 -12 -85 -13 -103 -3 -175
48 -216 154 l-17 46 -258 1 c-143 1 -262 2 -267 3 -4 0 -12 13 -18 27 -7 20
-6 32 6 51 l16 24 252 -1 c139 0 262 0 275 0 15 0 26 9 34 28 7 15 18 34 25
43 11 13 1 28 -70 102 l-82 87 -216 0 c-230 0 -235 1 -244 49 -2 12 4 30 13
39 15 15 44 17 256 16 l239 0 46 -50z m-1734 -10 c8 -4 23 -20 31 -36 14 -27
14 -32 0 -53 -20 -30 -46 -38 -80 -26 -21 9 -26 17 -26 46 0 22 8 43 20 55 21
21 29 23 55 14z m3019 -33 c19 -21 13 -69 -11 -78 -20 -8 -60 16 -66 39 -6 21
24 58 46 58 8 0 22 -8 31 -19z m-204 -234 c6 -17 3 -28 -14 -45 -19 -19 -27
-21 -49 -13 -33 13 -36 48 -7 79 17 18 25 20 41 11 11 -5 24 -20 29 -32z
m-396 -133 c31 -30 12 -81 -29 -81 -35 0 -58 33 -43 61 20 39 47 46 72 20z
m-1128 -239 c36 -55 -33 -106 -70 -53 -20 29 -20 34 4 58 27 27 46 25 66 -5z
m324 0 c19 -23 4 -64 -27 -71 -41 -11 -71 44 -41 74 17 17 53 15 68 -3z"/>
<path d="M5827 8074 c-49 -49 -44 -136 10 -171 13 -9 42 -16 64 -16 103 0 143
137 57 197 -36 26 -101 21 -131 -10z"/>
<path d="M3420 6783 c-26 -33 -21 -79 11 -105 61 -51 140 20 103 93 -24 48
-81 53 -114 12z"/>
<path d="M2854 7589 c-29 -15 -45 -52 -38 -89 17 -83 144 -66 144 20 0 54 -59
92 -106 69z"/>
<path d="M2739 6627 c-45 -34 -46 -89 -3 -120 47 -35 114 2 114 63 0 54 -69
90 -111 57z"/>
<path d="M6365 7733 c-55 -15 -94 -76 -81 -128 13 -52 72 -92 126 -86 65 8
114 84 90 141 -23 55 -81 87 -135 73z"/>
<path d="M6977 7318 c-54 -44 -51 -133 5 -170 88 -58 189 4 179 109 0 7 -14
27 -30 46 -25 28 -37 34 -78 35 -37 2 -54 -3 -76 -20z"/>
<path d="M4120 5983 c-245 -87 -486 -193 -648 -285 -46 -27 -85 -48 -87 -48
-2 0 -32 -18 -66 -40 -35 -22 -75 -46 -89 -52 -14 -7 -27 -15 -30 -18 -14 -14
-71 -50 -80 -50 -5 0 -10 -4 -10 -10 0 -5 -5 -10 -11 -10 -10 0 -97 -57 -109
-71 -3 -3 -28 -21 -55 -40 -79 -54 -297 -224 -351 -274 -6 -5 -36 -32 -67 -59
l-56 -49 28 -26 c16 -14 46 -39 67 -56 21 -16 46 -38 56 -47 10 -10 21 -18 24
-18 4 0 80 -56 94 -70 12 -12 182 -136 265 -194 232 -160 561 -351 739 -428
50 -22 105 -45 121 -53 17 -7 55 -22 85 -34 30 -12 64 -26 75 -31 37 -17 127
-40 136 -35 4 3 -13 25 -38 48 -138 126 -261 308 -328 482 -69 181 -95 325
-89 495 4 132 5 141 24 236 13 64 64 224 85 264 7 14 23 45 35 70 49 96 138
219 225 308 95 97 104 112 55 95z m-546 -564 c31 -37 31 -37 1 -72 l-25 -28
-29 23 c-16 13 -32 28 -34 33 -5 11 42 74 55 75 3 0 18 -14 32 -31z m-311 -92
c17 -17 16 -19 -21 -58 l-39 -39 -37 37 c-37 39 -47 73 -21 73 8 0 15 4 15 8
0 4 8 18 18 30 l17 21 25 -27 c14 -15 33 -35 43 -45z m107 -182 l-35 -36 -33
36 -34 36 33 33 34 34 35 -34 34 -34 -34 -35z m-240 -209 l-32 -34 -34 35
c-19 19 -34 37 -34 39 0 3 14 18 32 35 l32 29 34 -35 34 -35 -32 -34z m457 57
c18 -17 17 -25 -15 -62 l-28 -34 -36 35 -36 35 31 36 c34 39 31 39 84 -10z
m-215 -264 l-37 -38 -35 37 -36 37 35 38 35 37 38 -37 37 -36 -37 -38z m-124
-54 c36 -40 34 -53 -12 -92 -34 -29 -36 -29 -73 10 l-31 32 36 42 c20 24 39
43 42 43 3 0 20 -16 38 -35z m328 -100 l26 -35 -29 -33 -30 -34 -36 33 -36 33
32 35 c18 19 35 35 39 35 4 1 19 -15 34 -34z"/>
<path d="M5860 5978 c0 -2 42 -47 94 -100 238 -246 370 -559 370 -883 0 -160
-24 -291 -80 -443 -31 -84 -116 -257 -133 -272 -3 -3 -23 -30 -44 -61 -21 -31
-77 -96 -124 -143 -47 -47 -84 -88 -81 -91 4 -4 223 77 283 105 11 5 71 32
134 60 276 125 676 364 981 587 25 18 65 47 90 65 25 17 50 37 55 42 6 6 45
37 88 70 42 32 77 61 77 65 0 16 -421 347 -502 396 -10 6 -68 44 -130 86 -221
149 -658 379 -838 442 -25 8 -83 29 -129 46 -74 27 -111 37 -111 29z m676
-589 c3 -6 -9 -26 -27 -45 l-33 -34 -36 35 -35 36 33 30 33 30 29 -21 c16 -12
32 -26 36 -31z m208 -170 l28 -31 -33 -34 c-18 -19 -36 -34 -40 -34 -4 0 -18
15 -33 34 l-26 34 28 31 c15 16 32 30 38 31 6 0 23 -14 38 -31z m221 -280
c-18 -16 -36 -29 -40 -29 -3 0 -20 13 -35 29 l-29 29 32 36 32 35 36 -35 37
-36 -33 -29z m-450 61 l28 -29 -31 -36 -32 -35 -36 33 -37 33 34 32 c19 18 37
32 40 32 3 0 18 -13 34 -30z m222 -202 l33 -32 -27 -28 c-15 -15 -33 -28 -40
-28 -20 0 -64 50 -56 64 9 16 46 56 52 56 3 0 20 -14 38 -32z m-228 -292 l-35
-36 -34 35 -34 35 34 35 34 35 35 -34 34 -35 -34 -35z"/>
<path d="M4865 5960 c-86 -13 -108 -18 -181 -39 -210 -60 -397 -202 -510 -389
-81 -133 -137 -296 -150 -433 -13 -128 -2 -302 20 -337 4 -7 6 -16 3 -18 -6
-6 31 -108 68 -189 70 -151 217 -322 342 -398 171 -104 351 -148 578 -142 177
4 304 34 441 103 124 63 274 194 344 302 16 25 33 50 37 55 28 36 101 213 109
265 3 19 9 39 12 45 17 28 24 302 9 378 -11 56 -66 215 -95 272 -86 172 -223
314 -394 409 -70 39 -215 92 -276 102 -19 3 -44 8 -56 10 -42 9 -252 12 -301
4z m-17 -289 c95 -35 178 -120 219 -222 18 -45 23 -174 9 -233 -12 -52 -64
-141 -109 -189 -66 -69 -140 -100 -247 -104 -126 -3 -209 28 -287 109 -36 38
-83 111 -83 130 0 4 -5 19 -12 35 -17 42 -17 151 0 208 15 54 54 130 81 157 9
10 25 27 36 39 84 88 261 119 393 70z"/>
<path d="M7819 6236 c-79 -45 -84 -155 -8 -200 61 -36 121 -22 158 37 24 39
26 58 10 101 -22 61 -105 93 -160 62z"/>
<path d="M7842 4030 c-120 -50 -80 -220 52 -220 39 0 92 44 102 87 9 36 -13
100 -40 118 -31 20 -85 27 -114 15z"/>
<path d="M2711 3964 c-24 -31 -24 -31 -10 -73 24 -69 113 -70 137 -1 27 76
-78 137 -127 74z"/>
<path d="M3434 3285 c-74 -31 -50 -139 31 -139 71 0 91 105 27 138 -23 12 -33
12 -58 1z"/>
<path d="M3884 2743 c-27 -25 -29 -32 -23 -67 9 -56 59 -81 104 -52 48 31 45
105 -5 131 -39 20 -42 19 -76 -12z"/>
<path d="M4460 2950 c-27 -27 -25 -71 5 -104 30 -32 65 -33 92 -3 29 31 32 48
17 79 -25 50 -79 63 -114 28z"/>
<path d="M7010 2802 c-75 -37 -88 -123 -27 -189 64 -71 187 -12 187 91 0 75
-92 131 -160 98z"/>
<path d="M6370 2423 c-99 -32 -121 -127 -46 -198 14 -14 34 -20 68 -20 90 0
143 87 98 161 -13 20 -38 43 -56 50 -35 15 -40 15 -64 7z"/>
<path d="M5831 2034 c-62 -52 -49 -143 26 -182 53 -29 121 6 143 74 10 29 9
40 -8 72 -34 66 -106 82 -161 36z"/>
</g>
</svg>
